<svg xmlns="http://www.w3.org/2000/svg" width="48" height="29" fill="#fff" viewBox="0 0 48 29">
  <path d="M17.53,25.11c.61-1.08,1.98-3.61,1.86-5.85-.31-5.53-4.89-6.67-9.27-9.06-4.13-2.26-4.23-5.46-4.23-5.46C5.45-.25,10.47.4,10.47.4c2.92.11,4.52,3.4,4.52,3.4.8,1.57.84,3.29.88,3.4.06.13.16,0,.2-.09s-.12-4.44-.12-4.69c0-.39-.1-.47-.1-.47,0,.01-1.51-1.74-5.4-1.94-2.02-.11-3.41.73-3.41.73-1.33.73-2.37,2.09-2.55,4.33-.33,3.96,3.17,6.22,4.5,6.86,3.64,1.79,5.85,2.43,7.57,4.4,2.31,2.63,2.02,5.2,1.33,7.58,0,0-.18.52-.43,1.06,0,0-.08.17,0,.19,0,0,.04-.02.06-.04h0s0,0,0,0ZM1.82,13.66c-.14-.13-.35.3-.35.3C-.16,16.34,0,19.43,0,19.43c.41,6.5,5.72,8.03,8.06,8.14,3.55.13,6.85-1.92,7.53-4.86.88-3.89-1.29-6.45-7.55-8.95C2.23,11.46,2.23,7.61,2.23,7.61c-.1-.52-.14-2.39.65-4.4.04-.15.12-.3.1-.3-.06-.06-.2.19-.2.19-.14.22-.27.43-.39.69,0,0-2.45,4.61-.24,8.14,0,0,1.51,2.61,6.14,4.45,4.88,1.96,5.93,4.01,5.96,5.88.04,1.25-1.12,4.69-4.84,5-3.81.32-7.71-2.35-8.43-7.32,0,0-.49-2.91.69-5.77.08-.22.2-.45.14-.52h0s.01,0,.01,0Z"/>
  <path d="M19.99,12.91c0,.41-.02.73-.04,1.29,0,.13.02.41-.14.39-.14,0-.2-.17-.2-.17-.72-1.72-1.76-2.84-1.76-2.84-2.33-2.59-6-2.37-6-2.37-4.07-.02-6.73,3.96-6.73,3.96-2.96,4.21-1,8.2-1,8.2.04.06.14.26.16.28s0,.06,0,.09c0,.02-.02.03-.06.02-.06-.01-.06-.06-.06-.06,0,0-2.31-2.87.14-7.88,0,0,2.04-4.09,6.38-5.08,1.96-.45,6.04-.28,8.82,2.93.02-.02.51.52.49,1.25h-.01Z"/>
</svg>